# xmcd
#
# Track frame offsets:
#	150
#	28300
#	54315
#	72041
#	102327
#	116825
#	129640
#	146393
#	164449
#	188352
#	206177
#	236397
#
# Disc length: 3344 seconds
#
# Revision: 0
# Processed by: cddbd v1.5.2PL0 Copyright (c) Steve Scherf et al.
# Submitted via: EasyCDDAExtractor 2010.4.0.0
#
DISCID=a80d0e0c
DTITLE=Lil' Nathan and the Zydeco Big Timers - Zydeco Ballin'
DYEAR=2002
DGENRE=zydeco
TTITLE0=Ballin' on zydeco
TTITLE1=Where the zydeco at
TTITLE2=Billy goat
TTITLE3=I'm coming home
TTITLE4=Bounce with it
TTITLE5=Triple row experiment
TTITLE6=Why you wanna make poor cha cha cry
TTITLE7=Louisiana boy
TTITLE8=Everybody get ready
TTITLE9=Can forgive but can't forget
TTITLE10=Bad dogs
TTITLE11=Bounce with it (party mix)
EXTD=
EXTT0=
EXTT1=
EXTT2=
EXTT3=
EXTT4=
EXTT5=
EXTT6=
EXTT7=
EXTT8=
EXTT9=
EXTT10=
EXTT11=
PLAYORDER=
